<svg xmlns="http://www.w3.org/2000/svg" xmlns:xlink="http://www.w3.org/1999/xlink" viewBox="0 0 495.62 495.62"><defs><style>.cls-1{fill:#1a1a1a;}.cls-2{fill:url(#Gradiente_sem_nome_6);}.cls-3{fill:#fc0;}.cls-4{fill:#efefef;}.cls-5{fill:url(#Gradiente_sem_nome_8);}</style><linearGradient id="Gradiente_sem_nome_6" x1="247.81" y1="495.62" x2="247.81" gradientUnits="userSpaceOnUse"><stop offset="0" stop-color="#fc0"/><stop offset="1" stop-color="#fc0"/></linearGradient><linearGradient id="Gradiente_sem_nome_8" x1="349.53" y1="413.33" x2="612.14" y2="413.33" gradientTransform="translate(787.2 696.19) rotate(180)" gradientUnits="userSpaceOnUse"><stop offset="0" stop-color="#fc0"/><stop offset="1" stop-color="#efefef"/></linearGradient></defs><g id="Camada_2" data-name="Camada 2"><g id="Camada_1-2" data-name="Camada 1"><rect class="cls-1" width="495.62" height="495.62" rx="247.81"/><path class="cls-2" d="M247.81,5a242.87,242.87,0,0,1,94.51,466.54,242.87,242.87,0,0,1-189-447.46A241.28,241.28,0,0,1,247.81,5m0-5h0C111,0,0,111,0,247.81H0C0,384.67,111,495.62,247.81,495.62h0c136.86,0,247.81-110.95,247.81-247.81h0C495.62,111,384.67,0,247.81,0Z"/><path class="cls-3" d="M58,198.57H78.72c16.67,0,27.21,10.65,27.21,28,0,18.14-10.34,30.06-27.77,30.06H58Zm10.6,49.52h9.28c11.54,0,17.16-8.39,17.16-21.4,0-11.19-5.52-19.55-17.08-19.55H68.55Z"/><path class="cls-3" d="M150.41,230.72H123.86v17.13h29.27l-1.3,8.75H113.56v-58h38v8.78H123.86v14.57h26.55Z"/><path class="cls-3" d="M171.91,207.36H155v-8.79h44.4v8.79H182.53V256.6H171.91Z"/><path class="cls-3" d="M207,241.67l-4.8,14.93H191.77c1.1-3.29,17.64-54.3,18.88-58h13.44l19.75,58H232.7l-5-14.93Zm18.4-8.79c-4.26-13-7-21.2-8.28-26.27H217c-1.46,6.13-4.34,15.27-7.82,26.27Z"/><path class="cls-3" d="M258.75,198.57v58H248.19v-58Z"/><path class="cls-3" d="M269.33,198.57H279.9v49.28h27.69l-1.25,8.75h-37Z"/><path class="cls-3" d="M322.53,198.57v58H312v-58Z"/><path class="cls-3" d="M333.11,256.6v-58h13.48c14.53,27.61,22.26,41.15,24,45.29h.14c-.59-6.9-.63-16.47-.63-26V198.57h9.7v58H367c-15-29.12-22.68-43.07-24.52-47.09h-.11c.42,6.66.46,17.11.46,27.51V256.6Z"/><path class="cls-3" d="M437.11,256.6h-7.85a41.82,41.82,0,0,1-.84-6.94c-3,5.35-8.64,7.81-16.75,7.81-15.83,0-24.2-12.74-24.2-29.43,0-17,9.5-30.28,26.8-30.28,13.78,0,21.5,7.63,23,17.57H426.83c-1.36-4.6-4.59-9.06-13-9.06-11.41,0-15.49,10.07-15.49,21.61,0,11.14,4.27,21.07,15.29,21.07,10.56,0,13-7.3,13-15.09v-.4H413.28v-8.92h23.83Z"/><path class="cls-4" d="M58,267.87h9c5.3,0,8.89,2.91,8.89,8,0,5.59-3.63,8.53-9.38,8.53H60.59v13.42H58Zm2.64,14.27h5.77c4.09,0,6.76-1.58,6.76-6.19,0-3.79-2.58-5.81-6.66-5.81H60.59Z"/><path class="cls-4" d="M81.67,283.66v14.2H79.05v-30h9.22c5.07,0,8.35,2.63,8.35,7.56,0,4.47-2.59,6.38-4.78,7,3.14.94,4.41,3.5,4.41,7.7v.64a36,36,0,0,0,.43,7.06H94a32.07,32.07,0,0,1-.47-7v-.64c0-4.55-1.45-6.55-6.55-6.55Zm0-2.27h5.55c4.2,0,6.66-1.54,6.66-5.89,0-3.35-2-5.36-5.94-5.36H81.67Z"/><path class="cls-4" d="M103.72,267.87v30h-2.61v-30Z"/><path class="cls-4" d="M132.11,284.4c0-5.75.06-11.31.18-14.38h-.07c-1.36,5-6.07,19-9.19,27.84h-2.61c-2.35-7.39-7.22-22.35-8.67-27.89h-.1c.21,3.47.31,10.25.31,15.39v12.5h-2.54v-30h4c3.33,9.73,7.46,22.68,8.48,26.57h.07c.57-2.56,5.45-16.9,8.89-26.57h3.91v30h-2.61Z"/><path class="cls-4" d="M155.83,283.21H143.07v12.33h14l-.39,2.32H140.48v-30h16v2.33H143.07v10.65h12.76Z"/><rect class="cls-5" x="175.06" y="280.96" width="262.61" height="3.81" rx="0.38"/></g></g></svg>