<svg xmlns="http://www.w3.org/2000/svg" viewBox="0 0 379.72 100.1"><defs><style>.cls-1{fill:#1a1a1a;}</style></defs><g id="Camada_2" data-name="Camada 2"><g id="Camada_1-2" data-name="Camada 1"><path class="cls-1" d="M0,.81H20.77C37.44.81,48,11.46,48,28.78c0,18.14-10.34,30.06-27.77,30.06H0ZM10.6,50.33h9.28C31.41,50.33,37,41.94,37,28.93,37,17.74,31.52,9.38,20,9.38H10.6Z"/><path class="cls-1" d="M92.46,33H65.91V50.09H95.18l-1.3,8.75H55.61V.81h38V9.59H65.91V24.16H92.46Z"/><path class="cls-1" d="M114,9.6H97.07V.81h44.4V9.6H124.58V58.84H114Z"/><path class="cls-1" d="M149,43.91l-4.8,14.93H133.82c1.1-3.29,17.64-54.3,18.88-58h13.43l19.76,58H174.75L169.7,43.91Zm18.4-8.79c-4.26-13-7-21.2-8.28-26.27h-.1c-1.46,6.13-4.34,15.27-7.82,26.27Z"/><path class="cls-1" d="M200.8.81v58H190.24V.81Z"/><path class="cls-1" d="M211.38.81H222V50.09h27.69l-1.25,8.75h-37Z"/><path class="cls-1" d="M264.58.81v58H254V.81Z"/><path class="cls-1" d="M275.16,58.84V.81h13.48c14.52,27.61,22.26,41.15,24,45.29h.14c-.59-6.9-.63-16.47-.63-25.95V.81h9.7v58H309c-15-29.12-22.68-43.07-24.53-47.09h-.1c.42,6.66.46,17.11.46,27.51V58.84Z"/><path class="cls-1" d="M379.16,58.84h-7.85a40.78,40.78,0,0,1-.84-6.94c-3,5.35-8.64,7.81-16.75,7.81-15.83,0-24.2-12.74-24.2-29.43,0-17,9.5-30.28,26.8-30.28,13.78,0,21.5,7.63,23,17.57H368.88c-1.36-4.6-4.59-9.06-13-9.06-11.41,0-15.5,10.07-15.5,21.61,0,11.14,4.28,21.07,15.3,21.07,10.56,0,13-7.3,13-15.09v-.4H355.33V26.78h23.83Z"/><path class="cls-1" d="M0,70.11H9c5.3,0,8.89,2.91,8.89,8,0,5.59-3.63,8.53-9.38,8.53H2.64V100.1H0ZM2.64,84.38H8.41c4.09,0,6.76-1.58,6.76-6.19,0-3.79-2.58-5.81-6.66-5.81H2.64Z"/><path class="cls-1" d="M23.72,85.9v14.2H21.1v-30h9.22c5.07,0,8.35,2.63,8.35,7.56,0,4.47-2.59,6.38-4.78,7,3.14.94,4.41,3.5,4.41,7.7V93a36,36,0,0,0,.43,7.06H36.08a32.07,32.07,0,0,1-.47-7v-.64c0-4.55-1.45-6.55-6.55-6.55Zm0-2.27h5.55c4.2,0,6.66-1.55,6.66-5.89,0-3.35-2-5.36-5.94-5.36H23.72Z"/><path class="cls-1" d="M45.77,70.11v30H43.16v-30Z"/><path class="cls-1" d="M74.16,86.64c0-5.75.06-11.31.18-14.38h-.07c-1.36,5-6.08,19-9.19,27.84H62.47c-2.35-7.39-7.22-22.35-8.67-27.89h-.1c.21,3.47.31,10.25.31,15.39v12.5H51.47v-30h4c3.33,9.73,7.46,22.68,8.48,26.57H64c.57-2.56,5.45-16.9,8.89-26.57h3.91v30H74.16Z"/><path class="cls-1" d="M97.88,85.45H85.12V97.78h14l-.39,2.32H82.53v-30h16v2.33H85.12V83.09H97.88Z"/><rect class="cls-1" x="117.11" y="83.2" width="262.61" height="3.81" rx="0.38" transform="translate(496.83 170.21) rotate(-180)"/></g></g></svg>