<svg width="1200" height="630" xmlns="http://www.w3.org/2000/svg">
  <defs>
    <linearGradient id="bg4" x1="0%" y1="0%" x2="100%" y2="100%">
      <stop offset="0%" style="stop-color:#0A0A0A;stop-opacity:1" />
      <stop offset="100%" style="stop-color:#1F1F1F;stop-opacity:1" />
    </linearGradient>
  </defs>
  
  <rect width="1200" height="630" fill="url(#bg4)"/>
  
  <!-- Growth chart -->
  <polyline points="200,450 350,400 500,350 650,300 800,250 950,200" fill="none" stroke="#FFC107" stroke-width="4"/>
  <circle cx="200" cy="450" r="8" fill="#FFC107"/>
  <circle cx="350" cy="400" r="8" fill="#FFC107"/>
  <circle cx="500" cy="350" r="8" fill="#FFC107"/>
  <circle cx="650" cy="300" r="8" fill="#FFC107"/>
  <circle cx="800" cy="250" r="8" fill="#FFC107"/>
  <circle cx="950" cy="200" r="10" fill="#FFC107"/>
  
  <!-- Grid lines -->
  <line x1="150" y1="200" x2="1000" y2="200" stroke="#2A2A2A" stroke-width="1"/>
  <line x1="150" y1="300" x2="1000" y2="300" stroke="#2A2A2A" stroke-width="1"/>
  <line x1="150" y1="400" x2="1000" y2="400" stroke="#2A2A2A" stroke-width="1"/>
  <line x1="150" y1="500" x2="1000" y2="500" stroke="#2A2A2A" stroke-width="1"/>
  
  <!-- Percentage -->
  <text x="950" y="170" font-family="Arial, sans-serif" font-size="48" font-weight="bold" fill="#FFC107" text-anchor="middle">+5.9%</text>
  
  <!-- Title -->
  <text x="600" y="100" font-family="Arial, sans-serif" font-size="56" font-weight="bold" fill="#FFC107" text-anchor="middle">MERCADO DE DETAILING</text>
  <text x="600" y="560" font-family="Arial, sans-serif" font-size="36" fill="#FFFFFF" text-anchor="middle">Brasil 2025 • Crescimento e Oportunidades</text>
  
  <rect x="50" y="50" width="200" height="50" rx="25" fill="#FFC107"/>
  <text x="150" y="83" font-family="Arial, sans-serif" font-size="24" font-weight="bold" fill="#0A0A0A" text-anchor="middle">MERCADO</text>
  
  <text x="1100" y="590" font-family="Arial, sans-serif" font-size="20" font-weight="bold" fill="#FFC107" text-anchor="end">DETAILING PRIME</text>
</svg>
