<svg width="1200" height="630" xmlns="http://www.w3.org/2000/svg">
  <defs>
    <linearGradient id="bg6" x1="0%" y1="0%" x2="100%" y2="100%">
      <stop offset="0%" style="stop-color:#0A0A0A;stop-opacity:1" />
      <stop offset="100%" style="stop-color:#1F1F1F;stop-opacity:1" />
    </linearGradient>
    <radialGradient id="light" cx="50%" cy="50%" r="50%">
      <stop offset="0%" style="stop-color:#FFC107;stop-opacity:1" />
      <stop offset="100%" style="stop-color:#FFC107;stop-opacity:0" />
    </radialGradient>
  </defs>
  
  <rect width="1200" height="630" fill="url(#bg6)"/>
  
  <!-- Headlights -->
  <ellipse cx="400" cy="320" rx="120" ry="80" fill="#2A2A2A"/>
  <ellipse cx="800" cy="320" rx="120" ry="80" fill="#2A2A2A"/>
  
  <!-- Before (yellow) -->
  <ellipse cx="400" cy="320" rx="100" ry="65" fill="#FFA000" opacity="0.3"/>
  
  <!-- After (clear) -->
  <ellipse cx="800" cy="320" rx="100" ry="65" fill="url(#light)" opacity="0.8"/>
  
  <!-- Light beams -->
  <path d="M 800 320 L 950 280 L 950 360 Z" fill="#FFC107" opacity="0.2"/>
  <path d="M 800 320 L 980 300 L 980 340 Z" fill="#FFC107" opacity="0.3"/>
  
  <!-- Arrow -->
  <path d="M 550 320 L 650 320 L 630 300 M 650 320 L 630 340" stroke="#FFC107" stroke-width="4" fill="none"/>
  
  <!-- Labels -->
  <text x="400" y="450" font-family="Arial, sans-serif" font-size="28" fill="#B0B0B0" text-anchor="middle">ANTES</text>
  <text x="800" y="450" font-family="Arial, sans-serif" font-size="28" fill="#FFC107" text-anchor="middle">DEPOIS</text>
  
  <!-- Title -->
  <text x="600" y="120" font-family="Arial, sans-serif" font-size="56" font-weight="bold" fill="#FFC107" text-anchor="middle">RESTAURAÇÃO</text>
  <text x="600" y="180" font-family="Arial, sans-serif" font-size="44" font-weight="bold" fill="#FFFFFF" text-anchor="middle">DE FARÓIS</text>
  
  <text x="600" y="560" font-family="Arial, sans-serif" font-size="32" fill="#B0B0B0" text-anchor="middle">Técnica Profissional 2025</text>
  
  <rect x="50" y="50" width="220" height="50" rx="25" fill="#FFC107"/>
  <text x="160" y="83" font-family="Arial, sans-serif" font-size="24" font-weight="bold" fill="#0A0A0A" text-anchor="middle">TUTORIAIS</text>
  
  <text x="1100" y="590" font-family="Arial, sans-serif" font-size="20" font-weight="bold" fill="#FFC107" text-anchor="end">DETAILING PRIME</text>
</svg>
