<svg xmlns="http://www.w3.org/2000/svg" xmlns:xlink="http://www.w3.org/1999/xlink" viewBox="0 0 252.84 252.84"><defs><style>.cls-1{fill:#1a1a1a;}.cls-2{fill:url(#Gradiente_sem_nome_6);}.cls-3{fill:#fc0;}.cls-4{fill:#efefef;}.cls-5{fill:url(#Gradiente_sem_nome_8);}</style><linearGradient id="Gradiente_sem_nome_6" x1="126.42" y1="252.84" x2="126.42" gradientUnits="userSpaceOnUse"><stop offset="0" stop-color="#fc0"/><stop offset="1" stop-color="#fc0"/></linearGradient><linearGradient id="Gradiente_sem_nome_8" x1="24.14" y1="139.52" x2="178.02" y2="139.52" gradientUnits="userSpaceOnUse"><stop offset="0" stop-color="#fc0"/><stop offset="1" stop-color="#efefef"/></linearGradient></defs><g id="Camada_2" data-name="Camada 2"><g id="Camada_1-2" data-name="Camada 1"><rect class="cls-1" width="252.84" height="252.84" rx="126.42"/><path class="cls-2" d="M126.42,5a121.42,121.42,0,0,1,85.86,207.28A121.42,121.42,0,0,1,40.56,40.56,120.66,120.66,0,0,1,126.42,5m0-5A126.42,126.42,0,0,0,0,126.42H0A126.42,126.42,0,0,0,126.42,252.84h0A126.42,126.42,0,0,0,126.42,0Z"/><path class="cls-3" d="M183.26,139.25l-.87,1.38h-.66l2.8-4.49h.74l1,4.49h-.63l-.3-1.38Zm2-.51c-.25-1.21-.38-1.83-.42-2.13h0c-.16.32-.61,1.08-1.25,2.13Z"/><path class="cls-3" d="M189.51,139.77c-.06.29-.13.59-.17.86h-.57a3.2,3.2,0,0,1,.09-.55,1.26,1.26,0,0,1-1.21.64c-.7,0-1.14-.42-.94-1.34l.41-1.95h.58l-.39,1.82c-.1.5-.07,1,.53,1s1.09-.5,1.29-1.43l.29-1.37H190Z"/><path class="cls-3" d="M190.34,137.43H191l.22-1.05h.58l-.22,1.05h.79l-.1.45h-.79l-.38,1.78c-.08.36,0,.53.32.53a2.15,2.15,0,0,0,.4,0l-.09.44a1.81,1.81,0,0,1-.54.07c-.64,0-.81-.33-.69-.93l.4-1.85h-.62Z"/><path class="cls-3" d="M195.48,138.83a1.79,1.79,0,0,1-1.86,1.89,1.39,1.39,0,0,1-1.49-1.47,1.82,1.82,0,0,1,1.86-1.91A1.41,1.41,0,0,1,195.48,138.83Zm-2.76.39a.93.93,0,0,0,.95,1,1.26,1.26,0,0,0,1.21-1.41.92.92,0,0,0-.95-1A1.3,1.3,0,0,0,192.72,139.22Z"/><path class="cls-3" d="M197.42,140.63l1-4.49h.72c.68,1.41,1.57,3.19,1.79,3.72h0c.08-.58.24-1.31.39-2l.36-1.68h.58l-.95,4.49h-.67c-.45-.91-1.6-3.36-1.81-3.87h0c-.09.58-.23,1.24-.4,2l-.38,1.83Z"/><path class="cls-3" d="M202.79,139.16s0,.08,0,.13a.84.84,0,0,0,.9,1,1,1,0,0,0,1-.5h.61a1.62,1.62,0,0,1-1.63,1,1.32,1.32,0,0,1-1.41-1.45,1.84,1.84,0,0,1,1.86-1.93,1.27,1.27,0,0,1,1.4,1.35,2.09,2.09,0,0,1-.06.47Zm2.11-.43a.63.63,0,0,0,0-.11.78.78,0,0,0-.89-.82,1.14,1.14,0,0,0-1.15.93Z"/><path class="cls-3" d="M206.46,137.43c.13,1.47.21,2.32.22,2.62h0c.16-.36.37-.74,1.39-2.62h.55c.22,1.6.28,2.31.29,2.59h0c.14-.33.48-1,1.35-2.59h.59l-1.77,3.2h-.58c-.12-.95-.29-2.17-.31-2.51h0c-.15.32-.62,1.2-1.35,2.51h-.61l-.35-3.2Z"/><path class="cls-3" d="M211.21,139.62c.07.49.46.66.94.66s.81-.19.81-.53-.19-.43-.84-.57c-.9-.2-1.12-.48-1.12-.88,0-.56.49-1,1.31-1,1.18,0,1.39.69,1.39,1h-.58c0-.25-.21-.56-.84-.56-.42,0-.68.16-.68.45s.21.35.79.48c.9.21,1.18.49,1.18,1s-.53,1-1.48,1-1.42-.36-1.46-1.1Z"/><path class="cls-3" d="M24.14,113h7.92c4.08,0,7.26,2.18,7.26,6.23,0,4.34-3.21,6.49-7.52,6.49H28.24v8h-4.1Zm4.1,9.46h3.21c2.26,0,3.72-.86,3.72-3.15s-1.53-3-3.61-3H28.24Z"/><path class="cls-3" d="M41.92,123c0-2.18,0-3.74-.05-4.85h3.88c.07.55.1,1.75.1,2.79a5,5,0,0,1,4.87-3.09v3.93c-3.2,0-4.83,1.07-4.83,4.89v7h-4Z"/><path class="cls-3" d="M53.14,111.75h4v3.74h-4Zm0,6.41h4v15.56h-4Z"/><path class="cls-3" d="M61,122.66c0-2.36,0-3.54,0-4.5h3.82a17.41,17.41,0,0,1,.14,1.91,4.85,4.85,0,0,1,4.34-2.23,4,4,0,0,1,4,2.44A5.26,5.26,0,0,1,78,117.84c2.63,0,4.92,1.48,4.92,5.52v10.36H79V124c0-1.47-.52-2.88-2.34-2.88s-2.73,1.38-2.73,3.75v8.9H70.05v-9.79c0-1.55-.57-2.83-2.33-2.83S65,122.28,65,125v8.69H61Z"/><path class="cls-3" d="M89.92,126.81c0,2.08.91,4.1,3.21,4.1a2.65,2.65,0,0,0,2.81-1.86h3.92c-.65,2.26-2.4,5-6.84,5-5,0-7.1-3.62-7.1-8s2.15-8.19,7.26-8.19,6.88,3.79,6.88,7.69c0,.32,0,1,0,1.28Zm6.23-2.56c-.06-1.89-.83-3.47-3-3.47s-3,1.79-3.15,3.47Z"/><path class="cls-4" d="M110.92,113h7.54c6.09,0,9.8,3.86,9.8,10,0,6.47-3.71,10.73-10,10.73h-7.35ZM115,130.45h3.12c3.93,0,5.86-2.9,5.86-7.42,0-3.8-1.81-6.74-5.83-6.74H115Z"/><path class="cls-4" d="M134.59,126.81c0,2.08.9,4.1,3.21,4.1a2.65,2.65,0,0,0,2.81-1.86h3.92c-.65,2.26-2.4,5-6.84,5-5,0-7.1-3.62-7.1-8s2.15-8.19,7.26-8.19,6.88,3.79,6.88,7.69c0,.32,0,1,0,1.28Zm6.22-2.56c-.05-1.89-.82-3.47-3-3.47s-3,1.79-3.15,3.47Z"/><path class="cls-4" d="M146.11,118.16h2.32v-4.27h3.95v4.27h2.93v3.06h-2.93v8.08c0,1.15.3,1.63,1.59,1.63a5.83,5.83,0,0,0,1-.07v2.75a8.9,8.9,0,0,1-2.59.3c-2.92,0-3.94-1.33-3.94-4.12v-8.57h-2.32Z"/><path class="cls-4" d="M170.11,129.78a36.15,36.15,0,0,0,.21,3.94h-3.61a9.71,9.71,0,0,1-.23-1.8c-.61,1.14-1.93,2.11-4.42,2.11-3.8,0-5.23-2.43-5.23-4.79,0-3.06,2.26-5.12,7.34-5.12h2.05V123c0-1.24-.4-2.34-2.41-2.34s-2.34.9-2.52,2.09h-3.81c.19-2.56,1.74-4.93,6.43-4.92,3.82,0,6.2,1.41,6.2,5.18Zm-3.81-3.15h-1.92c-2.82,0-3.57,1-3.57,2.33a2,2,0,0,0,2.31,2.11c2.66,0,3.18-1.8,3.18-4.08Z"/><path class="cls-4" d="M174.06,111.75h4v3.74h-4Zm0,6.41h4v15.56h-4Z"/><path class="cls-4" d="M182,133.72v-22h4v22Z"/><path class="cls-4" d="M189.85,111.75h4v3.74h-4Zm0,6.41h4v15.56h-4Z"/><path class="cls-4" d="M197.76,122.64c0-2.46,0-3.61,0-4.48h3.85a15.76,15.76,0,0,1,.14,2.07,4.73,4.73,0,0,1,4.45-2.39c3.17,0,5,2,5,5.81v10.07h-4v-9.45c0-1.82-.54-3.17-2.51-3.17s-3,1.2-3,4v8.63h-4Z"/><path class="cls-4" d="M228.53,133.2c0,4.88-1.93,7.89-7.42,7.89-5.21,0-6.55-2.85-6.73-5h4c.29,1.23,1.26,2,3,2,2.77,0,3.35-1.68,3.35-4.67l.13-2c-.8,1.47-2.21,2.17-4.31,2.17-3.86,0-6.28-3.1-6.28-7.69,0-4.94,3-8,6.6-8,2.55,0,3.61,1,3.94,1.89,0-.43.12-1.29.16-1.57h3.81c0,1-.05,2.69-.05,4.59Zm-10.25-7.44c0,2.83,1.27,4.56,3.3,4.56,2.53,0,3.32-1.59,3.32-4.65,0-2.89-.49-4.6-3.22-4.6C219.73,121.07,218.28,122.56,218.28,125.76Z"/><rect class="cls-5" x="24.14" y="139.04" width="153.89" height="0.96" rx="0.38"/></g></g></svg>