<svg xmlns="http://www.w3.org/2000/svg" xmlns:xlink="http://www.w3.org/1999/xlink" viewBox="0 0 220.09 31.56"><defs><style>.cls-1{fill:#fc0;}.cls-2{fill:#efefef;}.cls-3{fill:url(#Gradiente_sem_nome_8);}</style><linearGradient id="Gradiente_sem_nome_8" y1="29.88" x2="165.56" y2="29.88" gradientUnits="userSpaceOnUse"><stop offset="0" stop-color="#fc0"/><stop offset="1" stop-color="#efefef"/></linearGradient></defs><g id="Camada_2" data-name="Camada 2"><g id="Camada_1-2" data-name="Camada 1"><path class="cls-1" d="M171.19,29.59l-.93,1.48h-.71l3-4.84h.8l1,4.84h-.69l-.31-1.48Zm2.12-.56c-.27-1.3-.41-2-.45-2.29h0c-.17.34-.66,1.16-1.35,2.29Z"/><path class="cls-1" d="M177.91,30.14c-.06.31-.13.64-.17.93h-.62a5.56,5.56,0,0,1,.1-.59,1.37,1.37,0,0,1-1.31.68c-.75,0-1.22-.45-1-1.44l.45-2.1H176l-.42,2c-.12.54-.08,1,.56,1s1.17-.53,1.39-1.54l.32-1.47h.62Z"/><path class="cls-1" d="M178.81,27.62h.65l.24-1.12h.63l-.24,1.12H181l-.11.49H180l-.4,1.91c-.09.39,0,.57.34.57a2.52,2.52,0,0,0,.43,0l-.1.47a1.73,1.73,0,0,1-.58.08c-.68,0-.87-.36-.74-1l.43-2h-.66Z"/><path class="cls-1" d="M184.34,29.13a1.92,1.92,0,0,1-2,2,1.49,1.49,0,0,1-1.6-1.58,2,2,0,0,1,2-2A1.51,1.51,0,0,1,184.34,29.13Zm-3,.42a1,1,0,0,0,1,1.1,1.36,1.36,0,0,0,1.31-1.52,1,1,0,0,0-1-1.09A1.38,1.38,0,0,0,181.38,29.55Z"/><path class="cls-1" d="M186.43,31.07l1-4.84h.77c.73,1.52,1.68,3.44,1.93,4h0c.09-.63.26-1.41.43-2.2l.38-1.81h.63l-1,4.84h-.72c-.48-1-1.72-3.62-1.94-4.16h0c-.09.62-.25,1.33-.43,2.19l-.41,2Z"/><path class="cls-1" d="M192.21,29.48a.66.66,0,0,0,0,.15.9.9,0,0,0,1,1,1.07,1.07,0,0,0,1-.55h.65a1.73,1.73,0,0,1-1.75,1.06,1.41,1.41,0,0,1-1.52-1.55,2,2,0,0,1,2-2.08A1.36,1.36,0,0,1,195.09,29a2.27,2.27,0,0,1-.06.5Zm2.27-.45v-.12a.84.84,0,0,0-.95-.89,1.21,1.21,0,0,0-1.23,1Z"/><path class="cls-1" d="M196.16,27.62c.13,1.59.22,2.5.23,2.82h0c.18-.38.4-.79,1.5-2.82h.59c.23,1.73.31,2.49.31,2.79h0c.15-.36.52-1,1.45-2.79h.63L199,31.07h-.63c-.13-1-.31-2.33-.33-2.71h0c-.16.35-.67,1.29-1.46,2.71h-.65l-.38-3.45Z"/><path class="cls-1" d="M201.27,30c.07.53.49.71,1,.71s.87-.2.87-.57-.21-.46-.91-.61c-1-.22-1.2-.52-1.2-1,0-.61.52-1,1.41-1,1.27,0,1.49.74,1.5,1.08h-.63c0-.28-.23-.61-.91-.61-.45,0-.73.17-.73.48s.23.38.85.52c1,.23,1.27.53,1.27,1s-.57,1.12-1.58,1.12-1.54-.38-1.57-1.18Z"/><path class="cls-1" d="M0,1.33H8.52c4.39,0,7.82,2.35,7.82,6.7,0,4.68-3.46,7-8.1,7H4.42v8.63H0ZM4.42,11.51H7.87c2.43,0,4-.93,4-3.39S10.22,4.85,8,4.85H4.42Z"/><path class="cls-1" d="M19.14,12.11c0-2.34,0-4-.06-5.22h4.17a29.36,29.36,0,0,1,.12,3A5.31,5.31,0,0,1,28.6,6.57V10.8c-3.45,0-5.2,1.15-5.2,5.26v7.58H19.14Z"/><path class="cls-1" d="M31.2,0h4.27V4H31.2Zm0,6.89h4.27V23.64H31.2Z"/><path class="cls-1" d="M39.7,11.73c0-2.53,0-3.81-.05-4.84h4.11c.07.5.13,1.41.15,2.06a5.2,5.2,0,0,1,4.67-2.41,4.26,4.26,0,0,1,4.26,2.63,5.68,5.68,0,0,1,5.08-2.63c2.83,0,5.29,1.6,5.29,6V23.64H59V13.12c0-1.58-.56-3.09-2.52-3.09s-2.94,1.47-2.94,4v9.58H49.4V13.1c0-1.66-.62-3-2.51-3s-3,1.27-3,4.24v9.35H39.7Z"/><path class="cls-1" d="M70.77,16.19c0,2.25,1,4.42,3.46,4.42a2.84,2.84,0,0,0,3-2h4.22C80.77,21,78.89,24,74.11,24c-5.4,0-7.64-3.88-7.64-8.61,0-4.57,2.31-8.82,7.81-8.82s7.4,4.09,7.4,8.28c0,.35,0,1-.05,1.37Zm6.7-2.74c0-2-.89-3.74-3.23-3.74S71,11.64,70.85,13.45Z"/><path class="cls-2" d="M93.37,1.33h8.11C108,1.33,112,5.49,112,12.09c0,7-4,11.55-10.74,11.55H93.37ZM97.8,20.11h3.36c4.23,0,6.3-3.12,6.3-8,0-4.1-1.95-7.25-6.27-7.25H97.8Z"/><path class="cls-2" d="M118.83,16.19c0,2.25,1,4.42,3.46,4.42a2.84,2.84,0,0,0,3-2h4.22C128.82,21,127,24,122.16,24c-5.39,0-7.63-3.88-7.63-8.61,0-4.57,2.31-8.82,7.81-8.82s7.4,4.09,7.4,8.28c0,.35,0,1-.05,1.37Zm6.7-2.74c-.06-2-.89-3.74-3.23-3.74-2.5,0-3.26,1.93-3.39,3.74Z"/><path class="cls-2" d="M131.23,6.89h2.49V2.3H138V6.89h3.16v3.29H138v8.7c0,1.24.33,1.75,1.71,1.75a5.81,5.81,0,0,0,1.07-.08v3a9.94,9.94,0,0,1-2.79.31c-3.14,0-4.24-1.43-4.24-4.43V10.18h-2.49Z"/><path class="cls-2" d="M157,19.39a38.82,38.82,0,0,0,.23,4.25h-3.88a10.37,10.37,0,0,1-.25-1.95c-.65,1.23-2.07,2.28-4.75,2.28-4.09,0-5.63-2.62-5.63-5.16,0-3.29,2.43-5.51,7.9-5.51h2.21V12.11c0-1.33-.44-2.52-2.6-2.52s-2.52,1-2.71,2.25h-4.1c.21-2.75,1.87-5.31,6.92-5.3,4.11,0,6.66,1.53,6.66,5.58ZM153,16h-2.07c-3,0-3.84,1.11-3.84,2.5a2.2,2.2,0,0,0,2.48,2.28c2.87,0,3.43-1.95,3.43-4.39Z"/><path class="cls-2" d="M161.29,0h4.27V4h-4.27Zm0,6.89h4.27V23.64h-4.27Z"/><path class="cls-2" d="M169.79,23.64V0h4.27V23.64Z"/><path class="cls-2" d="M178.29,0h4.26V4h-4.26Zm0,6.89h4.26V23.64h-4.26Z"/><path class="cls-2" d="M186.8,11.71c0-2.64,0-3.88-.05-4.82h4.14a17.76,17.76,0,0,1,.16,2.22,5.1,5.1,0,0,1,4.78-2.57c3.41,0,5.4,2.2,5.4,6.26V23.64H197V13.47c0-2-.57-3.42-2.7-3.42s-3.2,1.29-3.2,4.3v9.29H186.8Z"/><path class="cls-2" d="M219.9,23.07c0,5.25-2.07,8.49-8,8.49-5.6,0-7-3.06-7.24-5.33h4.27c.31,1.33,1.36,2.1,3.19,2.1,3,0,3.61-1.8,3.61-5l.13-2.18c-.85,1.57-2.37,2.33-4.63,2.33-4.15,0-6.76-3.33-6.76-8.27,0-5.31,3.17-8.65,7.1-8.65,2.75,0,3.89,1.14,4.24,2,0-.46.13-1.38.17-1.69h4.1c0,1.07-.05,2.9-.05,4.94Zm-11-8c0,3,1.37,4.9,3.55,4.9,2.72,0,3.57-1.7,3.57-5,0-3.12-.52-5-3.46-5C210.43,10,208.87,11.62,208.87,15.07Z"/><rect class="cls-3" y="29.36" width="165.56" height="1.03" rx="0.52"/></g></g></svg>